# xmcd
#
# Track frame offsets:
#	150
#	18385
#	29353
#	53031
#	69397
#	93402
#	113017
#	139059
#	161700
#	178608
#	198306
#	212141
#	223134
#
# Disc length: 3471 seconds
# Revision: 2
# Processed by: cddbd v1.5.2PL0 Copyright (c) Steve Scherf et al.
# Submitted via: dBpowerAMP V12.0
#
DISCID=b90d8d0d
DTITLE=TimO'Brien,Wheeling,WV&DarrellScott,AKAJamesDarrellScott,London,KY - We'reUsuallyALotBetterThanThis[live@TheGreyEagle,Asheville,NC
DYEAR=2012
DGENRE=Folk
TTITLE0=Climbing Up a Mountain
TTITLE1=House of Gold
TTITLE2=White Freightliner Blues
TTITLE3=Mick Ryan's Lament
TTITLE4=With a Memory Like Mine
TTITLE5=Early Morning Rain
TTITLE6=Keep Your Lamp Trimmed and Burning
TTITLE7=Long Time Gone
TTITLE8=You Don't Have To Move That Mountain
TTITLE9=The Hummingbird
TTITLE10=Mom and Dad's Waltz
TTITLE11=Hambone
TTITLE12=Medley{When There's No One Around~Will the Circle Be Unbroken}
EXTD=
EXTT0=
EXTT1=
EXTT2=
EXTT3=
EXTT4=
EXTT5=
EXTT6=
EXTT7=
EXTT8=
EXTT9=
EXTT10=
EXTT11=
EXTT12=
PLAYORDER=
